PathFileType	4	(X/Y/Z)	Kaydara	
DataRate	CameraRate	NumFrames	NumMarkers	Units	OrigDataRate	OrigDataStartFrame	OrigNumFrames	
60.00	60.00	4	74	mm	60.00	308	140	
Frame#	Time	Z_lasi			Z_rasi			Z_rpsi			Z_lpsi			Z_fneck			Z_fhead			Z_rhead			Z_lhead			Z_rshld			Z_relbtop			Z_relblow			Z_rwrext			Z_rwrtop			Z_rwrlow			Z_lshld			Z_lelbext			Z_lelblow			Z_lelbtop			Z_lwrext			Z_lwrtop			Z_lwrlow			Z_rtopleg			Z_ltopleg			Z_rkneefr			Z_rkneebk			Z_rkneeis			Z_lkneefr			Z_lknssbk			Z_lkneeis			Z_rankfr			Z_rankis			Z_rankbk			Z_lankfr			Z_lankbk			Z_lankis			N_lasi			N_rasi			N_rpsi			N_lpsi			N_fneck			N_bneck			N_fhead			N_rhead			N_lhead			N_rshld			N_relbtop			N_relbext			N_relblow			N_rwrext			N_rwrtop			N_rwrlow			N_lshld			N_lelbext			N_lelblow			N_lelbtop			N_lwrext			N_lwrtop			N_lwrlow			N_rtopleg			N_rkneefr			N_rkneebk			N_rkneeis			N_lkneefr			N_lknssbk			N_lkneeis			N_rankfr			N_rankis			N_rankbk			N_lankfr			N_lankbk			N_lankis			Z_relbext			Z_bneck			N_ltopleg			
		X1	Y1	Z1	X2	Y2	Z2	X3	Y3	Z3	X4	Y4	Z4	X5	Y5	Z5	X6	Y6	Z6	X7	Y7	Z7	X8	Y8	Z8	X9	Y9	Z9	X10	Y10	Z10	X11	Y11	Z11	X12	Y12	Z12	X13	Y13	Z13	X14	Y14	Z14	X15	Y15	Z15	X16	Y16	Z16	X17	Y17	Z17	X18	Y18	Z18	X19	Y19	Z19	X20	Y20	Z20	X21	Y21	Z21	X22	Y22	Z22	X23	Y23	Z23	X24	Y24	Z24	X25	Y25	Z25	X26	Y26	Z26	X27	Y27	Z27	X28	Y28	Z28	X29	Y29	Z29	X30	Y30	Z30	X31	Y31	Z31	X32	Y32	Z32	X33	Y33	Z33	X34	Y34	Z34	X35	Y35	Z35	X36	Y36	Z36	X37	Y37	Z37	X38	Y38	Z38	X39	Y39	Z39	X40	Y40	Z40	X41	Y41	Z41	X42	Y42	Z42	X43	Y43	Z43	X44	Y44	Z44	X45	Y45	Z45	X46	Y46	Z46	X47	Y47	Z47	X48	Y48	Z48	X49	Y49	Z49	X50	Y50	Z50	X51	Y51	Z51	X52	Y52	Z52	X53	Y53	Z53	X54	Y54	Z54	X55	Y55	Z55	X56	Y56	Z56	X57	Y57	Z57	X58	Y58	Z58	X59	Y59	Z59	X60	Y60	Z60	X61	Y61	Z61	X62	Y62	Z62	X63	Y63	Z63	X64	Y64	Z64	X65	Y65	Z65	X66	Y66	Z66	X67	Y67	Z67	X68	Y68	Z68	X69	Y69	Z69	X70	Y70	Z70	X71	Y71	Z71	X72	Y72	Z72	X73	Y73	Z73	X74	Y74	Z74	

88	5.117	-1653.66226	1017.07817	843.99475	-1478.36884	1008.64311	701.75018	-1338.68683	1063.02505	899.51477	-1542.74429	1073.56949	1021.31035	-1507.75452	1488.33252	711.58463	-1462.20078	1728.28354	639.69360	-1393.63327	1675.27100	793.21922	-1546.49948	1709.93774	786.84341	-1309.05609	1426.75201	684.65614	-1272.05063	1143.55179	578.24940	-1331.80176	1183.99132	552.42237	-1440.55771	1056.25427	386.26022	-1433.30719	1102.67357	363.62198	-1466.96503	1128.85849	382.45564	-1677.55035	1490.39688	914.81438	-1727.14401	1132.20535	1003.81981	-1719.19586	1195.13870	949.29977	-1751.58707	1225.11658	1014.08264	-1870.33951	1010.41420	949.95163	-1894.44595	1037.41493	911.79924	-1859.93195	1029.39415	877.63931	-1321.84067	883.62160	745.55298	-1671.25931	896.63574	964.06006	-1424.34830	448.32771	686.74164	-1344.48318	484.45229	765.89645	-1449.89624	449.50706	798.23563	-1639.19495	437.06882	838.54286	-1648.39417	470.60997	941.02692	-1539.86572	453.67958	885.22827	-1370.24719	149.28144	720.40550	-1389.81262	149.65269	790.05341	-1315.40482	152.00719	758.44620	-1619.79416	125.96629	939.04160	-1533.65219	138.20065	979.67514	-1557.05170	132.48233	908.46947	-1486.37711	1006.69380	-249.56734	-1693.93234	1006.67679	-132.15372	-1761.35712	1084.41238	-310.16806	-1595.36316	1072.11998	-408.03654	-1568.64532	1476.25641	-148.23565	-1612.66113	1531.16241	-249.02485	-1584.09653	1646.08871	-49.50138	-1662.66617	1643.42056	-224.85538	-1533.55591	1639.72260	-231.49698	-1772.03217	1420.58517	-87.67401	-1766.13663	1153.82156	47.87009	-1734.94965	1104.18320	7.33592	-1698.50861	1183.41164	44.43767	-1599.98581	1042.33093	233.31539	-1610.91766	1082.09152	253.60880	-1575.40421	1107.53441	235.91061	-1435.58792	1424.23691	-345.10990	-1485.47485	1114.11781	-395.04402	-1395.92178	1139.93347	-401.92070	-1450.99808	1118.99719	-460.21011	-1369.29291	910.93712	-421.12541	-1345.22614	920.16502	-386.62666	-1380.42664	915.10826	-357.25853	-1785.80963	901.28738	-188.97608	-1682.88971	428.86990	-174.38999	-1763.37372	454.38232	-209.23649	-1664.47235	444.67644	-269.12937	-1453.51929	435.82558	-293.46256	-1448.40240	465.27287	-376.60275	-1556.71402	453.09563	-324.48868	-1696.22772	169.77976	-212.53109	-1687.72522	167.25121	-292.72427	-1752.90451	159.11939	-263.32403	-1477.36816	188.99380	-420.47825	-1543.78891	187.18246	-418.88252	-1512.39426	185.05428	-351.55312	-1354.78561	1137.13844	617.24079	-1568.86826	1569.43192	815.79659	-1482.09579	948.04977	-365.01637 
89	5.133	-1655.61295	1016.46500	845.72693	-1479.68842	1009.32060	704.46136	-1340.64880	1062.75627	902.90047	-1545.30365	1072.68875	1023.65402	-1512.71652	1489.84299	718.13469	-1467.59109	1731.43707	650.91270	-1399.27933	1675.77621	803.68767	-1552.00790	1710.41931	797.50725	-1313.33313	1429.32800	690.48973	-1274.19449	1147.00203	582.35901	-1334.48837	1187.32414	556.97334	-1439.84390	1059.08432	388.88718	-1434.21692	1105.88318	367.32922	-1468.68225	1130.69885	386.84288	-1682.54303	1487.77283	921.48529	-1730.67123	1128.64830	1006.92047	-1722.75009	1192.17873	952.17064	-1755.08728	1220.96260	1017.41318	-1872.92984	1006.63986	950.32646	-1897.24091	1034.14665	912.60376	-1862.85706	1026.92680	878.28445	-1323.07846	883.25546	748.22968	-1673.46466	896.19690	965.28519	-1425.69901	448.26363	685.22629	-1346.99539	484.56589	765.01823	-1452.31735	449.40205	796.44287	-1639.57230	436.87935	839.18327	-1649.44626	470.18536	941.68777	-1541.14334	453.24108	885.82458	-1370.00336	149.63019	719.89044	-1390.14450	150.02161	789.45877	-1315.53940	152.48195	758.44818	-1619.78668	125.48677	939.06952	-1533.66379	137.82800	980.16876	-1556.77536	132.07424	908.91518	-1486.48804	1007.22702	-246.57093	-1693.59818	1006.98494	-128.41406	-1761.86432	1083.59451	-306.73704	-1595.92010	1071.52115	-405.05043	-1570.72556	1477.69409	-149.76417	-1614.68933	1531.45844	-251.07460	-1586.62994	1648.17871	-52.55274	-1664.80209	1644.22546	-228.19069	-1535.89157	1640.72250	-234.39457	-1774.94080	1421.41647	-89.11278	-1772.24060	1153.81874	45.71500	-1741.99081	1103.74107	4.59522	-1704.44138	1183.10028	42.15991	-1606.63284	1040.69672	230.38157	-1616.51550	1081.07346	250.56583	-1580.79315	1105.60608	231.86621	-1437.85583	1423.76709	-346.87904	-1486.66809	1112.80632	-392.41886	-1397.13257	1138.83865	-399.92264	-1452.39349	1117.10548	-457.77508	-1370.13901	909.59785	-417.11475	-1346.29715	918.84819	-383.02929	-1381.00082	914.48952	-353.31158	-1785.63675	900.97649	-184.91528	-1682.87338	428.56361	-173.22174	-1763.46939	454.25842	-207.66022	-1665.02060	444.92481	-268.35295	-1450.47012	436.75926	-290.14872	-1445.48203	466.60599	-373.34309	-1553.75290	454.33781	-320.31101	-1696.21765	169.61262	-212.10804	-1687.78473	167.44961	-292.30556	-1752.73788	159.07505	-262.56681	-1478.50098	190.73694	-420.61085	-1545.05402	189.88586	-418.62652	-1513.05267	186.33856	-351.54751	-1357.28455	1140.74974	621.50486	-1573.83026	1570.94238	822.34665	-1481.78864	948.43864	-361.87737 
90	5.150	-1657.18918	1015.85403	847.60353	-1480.87112	1009.75876	706.31516	-1342.46216	1062.18971	905.93025	-1547.43698	1071.85089	1025.97191	-1517.77649	1491.08307	724.42993	-1472.78625	1734.11499	661.56151	-1404.85382	1675.93002	813.48961	-1557.59140	1710.62973	807.62756	-1317.72064	1431.97845	696.55022	-1275.15213	1150.53680	586.61301	-1336.43173	1189.89433	562.03568	-1438.89389	1060.99739	392.77328	-1434.74503	1108.47069	372.05318	-1470.03357	1131.52466	391.87950	-1687.68936	1484.85657	927.74628	-1733.98605	1124.91158	1009.88831	-1725.94986	1189.07272	954.98672	-1758.51654	1216.59485	1020.53268	-1874.76822	1002.64587	949.98161	-1899.79691	1030.76874	913.13004	-1865.62546	1024.30313	878.49976	-1324.18625	882.74811	750.51315	-1675.36163	895.86151	966.44791	-1427.60300	448.22784	682.73544	-1350.14862	484.87614	763.17894	-1454.87289	449.06662	793.80371	-1639.53369	436.69209	839.82513	-1650.36682	469.70390	942.43011	-1541.22482	453.37261	887.82074	-1370.00366	149.96372	719.14528	-1390.70313	150.61806	788.51402	-1315.90134	153.41400	758.18344	-1619.82574	125.16642	939.12994	-1533.73413	137.41297	981.18080	-1556.74316	131.94002	909.16534	-1486.29013	1007.63901	-243.73888	-1693.10394	1007.32361	-124.95960	-1762.16217	1082.82600	-303.48717	-1596.42166	1070.84946	-402.24285	-1572.16202	1478.98224	-151.44974	-1616.22055	1531.67084	-252.93497	-1588.49701	1650.00671	-55.51929	-1666.42578	1644.73907	-231.22581	-1537.35870	1641.57288	-237.13972	-1777.16919	1421.99646	-90.76887	-1778.78418	1153.36296	42.83986	-1749.45129	1102.82387	1.33435	-1710.18600	1181.65642	39.29061	-1613.64899	1037.78099	226.50484	-1622.70477	1078.81798	246.73176	-1585.95444	1101.96564	226.60223	-1439.53613	1423.13232	-348.69637	-1487.47391	1111.34453	-389.84280	-1398.02597	1137.66510	-397.86335	-1453.38654	1115.06607	-455.24311	-1370.17426	908.28819	-412.67017	-1346.30020	918.10448	-378.90522	-1380.93811	913.78441	-348.77914	-1785.20477	900.64171	-181.02266	-1682.76047	428.26191	-171.78438	-1763.36639	454.23607	-205.97305	-1664.71863	444.94812	-266.47394	-1446.92688	437.79335	-287.19238	-1442.48047	468.22796	-370.35553	-1550.45227	455.72884	-315.83771	-1696.09055	169.47441	-211.68465	-1687.81998	167.69579	-291.88513	-1752.67197	158.80980	-261.35893	-1479.83063	192.90024	-421.05503	-1546.26526	192.80449	-418.28968	-1513.64014	187.90112	-351.65020	-1358.81882	1144.02206	626.09688	-1578.89008	1572.18246	828.64189	-1481.64047	948.61328	-358.06908 
91	5.167	-1658.85590	1015.50568	849.24889	-1481.46408	1010.17700	709.60411	-1343.91510	1061.39549	908.72986	-1549.14490	1070.88730	1028.22006	-1522.82257	1492.06390	730.28297	-1478.15338	1736.19751	671.52878	-1410.63721	1675.84702	822.92061	-1563.34579	1710.62286	817.04704	-1322.25067	1434.56909	702.36008	-1276.58997	1153.74596	592.80842	-1338.41705	1191.89621	567.07897	-1437.12677	1061.99974	397.50832	-1435.00565	1109.73099	377.53990	-1470.97870	1131.43799	397.82757	-1692.85858	1481.65100	933.36639	-1737.21680	1121.03065	1012.79068	-1729.20135	1185.82176	957.67105	-1761.72699	1212.08412	1023.65311	-1876.75812	998.74382	949.48647	-1901.88507	1027.30103	913.07449	-1867.70844	1021.77879	878.18871	-1325.46814	881.97845	752.83554	-1677.04544	895.56374	967.58026	-1429.89136	448.17924	679.63417	-1352.90619	485.21229	761.02127	-1458.00018	449.10271	790.18997	-1640.07202	436.69704	840.88898	-1651.15570	469.40994	943.21556	-1541.69052	453.54118	889.95872	-1370.30655	150.55656	718.34122	-1391.48956	151.44193	787.37282	-1316.10687	154.75256	758.32184	-1619.87274	124.92144	939.16367	-1533.74268	137.24170	981.80901	-1556.78711	131.89775	909.51653	-1485.85175	1008.16391	-241.17268	-1692.44873	1007.81097	-121.65020	-1762.28302	1082.04079	-300.51029	-1596.82281	1070.09499	-399.72847	-1572.97363	1480.10651	-153.44324	-1617.28546	1531.83365	-255.24420	-1589.77020	1651.58966	-58.47690	-1667.44904	1645.42801	-234.02882	-1538.25851	1642.37335	-239.88499	-1779.20532	1422.47467	-92.40936	-1785.30365	1152.45766	39.19405	-1757.19635	1101.72264	-2.80920	-1716.17462	1179.78554	35.65324	-1621.10123	1033.43529	221.44266	-1628.82645	1074.68369	241.63746	-1591.85562	1097.10854	220.92892	-1440.99579	1422.38190	-350.73635	-1487.71637	1109.76173	-387.13913	-1398.46176	1136.36086	-396.16608	-1453.89740	1112.67723	-452.82455	-1369.68765	906.90659	-407.85892	-1345.67734	917.32735	-374.33163	-1380.29221	913.37921	-344.10706	-1784.60464	900.43571	-177.32347	-1682.71378	428.05370	-170.00252	-1763.05954	454.23172	-204.13061	-1664.53278	445.10521	-264.78516	-1443.14346	438.94989	-284.74009	-1439.44504	470.24635	-367.64336	-1546.93359	457.25899	-311.56073	-1695.98297	169.38364	-211.07325	-1687.93671	168.02605	-291.48880	-1752.86072	159.34469	-261.32751	-1481.08322	195.26585	-421.78581	-1547.50946	195.93052	-418.02879	-1514.06235	189.63017	-352.02827	-1360.61417	1146.84738	631.65009	-1583.93631	1573.16330	834.49486	-1481.03973	948.77991	-355.56400 
